<svg width="12" height="8" viewBox="0 0 12 8" fill="none" xmlns="http://www.w3.org/2000/svg">
<path d="M5.9997 7.53933C5.86636 7.53933 5.74136 7.51833 5.6247 7.47633C5.50803 7.435 5.3997 7.36433 5.2997 7.26433L0.674696 2.63933C0.491363 2.456 0.40403 2.22667 0.412696 1.95133C0.420696 1.67667 0.516363 1.44767 0.699696 1.26433C0.883029 1.081 1.11636 0.989331 1.3997 0.989331C1.68303 0.989331 1.91636 1.081 2.0997 1.26433L5.9997 5.16433L9.9247 1.23933C10.108 1.056 10.3374 0.968332 10.6127 0.976332C10.8874 0.984998 11.1164 1.081 11.2997 1.26433C11.483 1.44767 11.5747 1.681 11.5747 1.96433C11.5747 2.24767 11.483 2.481 11.2997 2.66433L6.6997 7.26433C6.5997 7.36433 6.49136 7.435 6.3747 7.47633C6.25803 7.51833 6.13303 7.53933 5.9997 7.53933Z" fill="black"/>
</svg>
