<svg width="17" height="17" viewBox="0 0 17 17" fill="none" xmlns="http://www.w3.org/2000/svg">
<path d="M14.9378 16.071L10.0007 11.1339C9.55989 11.4866 9.05295 11.7657 8.47989 11.9715C7.90683 12.1772 7.29704 12.28 6.65051 12.28C5.04889 12.28 3.69338 11.7253 2.584 10.616C1.47461 9.50657 0.919922 8.15106 0.919922 6.54944C0.919922 4.94781 1.47461 3.59231 2.584 2.48292C3.69338 1.37354 5.04889 0.818848 6.65051 0.818848C8.25214 0.818848 9.60764 1.37354 10.717 2.48292C11.8264 3.59231 12.3811 4.94781 12.3811 6.54944C12.3811 7.19597 12.2782 7.80576 12.0725 8.37882C11.8668 8.95188 11.5876 9.45881 11.235 9.89963L16.1941 14.8588C16.3558 15.0204 16.4366 15.2188 16.4366 15.4539C16.4366 15.689 16.3484 15.8947 16.1721 16.071C16.0105 16.2327 15.8048 16.3135 15.555 16.3135C15.3052 16.3135 15.0995 16.2327 14.9378 16.071ZM6.65051 10.5168C7.75255 10.5168 8.68928 10.1311 9.46071 9.35963C10.2321 8.58821 10.6178 7.65147 10.6178 6.54944C10.6178 5.4474 10.2321 4.51067 9.46071 3.73924C8.68928 2.96782 7.75255 2.58211 6.65051 2.58211C5.54848 2.58211 4.61174 2.96782 3.84032 3.73924C3.06889 4.51067 2.68318 5.4474 2.68318 6.54944C2.68318 7.65147 3.06889 8.58821 3.84032 9.35963C4.61174 10.1311 5.54848 10.5168 6.65051 10.5168Z" fill="#542AAD"/>
</svg>
