<svg width="23" height="21" viewBox="0 0 23 21" fill="none" xmlns="http://www.w3.org/2000/svg">
<path d="M15.9457 10.8L14.4957 9.35005C14.6457 8.56672 14.4207 7.83338 13.8207 7.15005C13.2207 6.46672 12.4457 6.20005 11.4957 6.35005L10.0457 4.90005C10.329 4.76672 10.6165 4.66672 10.9082 4.60005C11.1999 4.53338 11.5124 4.50005 11.8457 4.50005C13.0957 4.50005 14.1582 4.93755 15.0332 5.81255C15.9082 6.68755 16.3457 7.75005 16.3457 9.00005C16.3457 9.33338 16.3124 9.64588 16.2457 9.93755C16.179 10.2292 16.079 10.5167 15.9457 10.8ZM19.1457 13.9501L17.6957 12.55C18.329 12.0667 18.8915 11.5375 19.3832 10.9626C19.8749 10.3876 20.2957 9.73338 20.6457 9.00005C19.8124 7.31672 18.6165 5.97922 17.0582 4.98755C15.4999 3.99588 13.7624 3.50005 11.8457 3.50005C11.3624 3.50005 10.8874 3.53338 10.4207 3.60005C9.95404 3.66672 9.4957 3.76672 9.0457 3.90005L7.4957 2.35005C8.17904 2.06672 8.87904 1.85422 9.5957 1.71255C10.3124 1.57088 11.0624 1.50005 11.8457 1.50005C14.3624 1.50005 16.604 2.19588 18.5707 3.58755C20.5374 4.97922 21.9624 6.78338 22.8457 9.00005C22.4624 9.98338 21.9582 10.8959 21.3332 11.7375C20.7082 12.5792 19.979 13.3167 19.1457 13.9501ZM19.6457 20.1L15.4457 15.9501C14.8624 16.1334 14.2749 16.2709 13.6832 16.3626C13.0915 16.4542 12.479 16.5 11.8457 16.5C9.32904 16.5 7.08737 15.8042 5.1207 14.4125C3.15404 13.0209 1.72904 11.2167 0.845703 9.00005C1.1957 8.11672 1.63737 7.29588 2.1707 6.53755C2.70404 5.77922 3.31237 5.10005 3.9957 4.50005L1.2457 1.70005L2.6457 0.300049L21.0457 18.7001L19.6457 20.1ZM5.3957 5.90005C4.91237 6.33338 4.4707 6.80838 4.0707 7.32505C3.6707 7.84172 3.32904 8.40005 3.0457 9.00005C3.87904 10.6834 5.07487 12.0209 6.6332 13.0126C8.19154 14.0042 9.92904 14.5001 11.8457 14.5001C12.179 14.5001 12.504 14.4792 12.8207 14.4376C13.1374 14.3959 13.4624 14.35 13.7957 14.3L12.8957 13.35C12.7124 13.4001 12.5374 13.4376 12.3707 13.4626C12.204 13.4875 12.029 13.5 11.8457 13.5C10.5957 13.5 9.5332 13.0625 8.6582 12.1875C7.7832 11.3125 7.3457 10.25 7.3457 9.00005C7.3457 8.81672 7.3582 8.64172 7.3832 8.47505C7.4082 8.30838 7.4457 8.13338 7.4957 7.95005L5.3957 5.90005Z" fill="#BBBBBB"/>
</svg>
