<svg width="20" height="15" viewBox="0 0 20 15" fill="none" xmlns="http://www.w3.org/2000/svg">
<path d="M10.0966 11.3697C11.2006 11.3697 12.1391 10.9629 12.9119 10.1494C13.6847 9.33588 14.0712 8.34804 14.0712 7.18588C14.0712 6.02371 13.6847 5.03587 12.9119 4.22236C12.1391 3.40884 11.2006 3.00208 10.0966 3.00208C8.9925 3.00208 8.05405 3.40884 7.28121 4.22236C6.50837 5.03587 6.12195 6.02371 6.12195 7.18588C6.12195 8.34804 6.50837 9.33588 7.28121 10.1494C8.05405 10.9629 8.9925 11.3697 10.0966 11.3697ZM10.0966 9.69615C9.43412 9.69615 8.87105 9.4521 8.40735 8.96399C7.94364 8.47588 7.71179 7.88317 7.71179 7.18588C7.71179 6.48858 7.94364 5.89587 8.40735 5.40776C8.87105 4.91966 9.43412 4.6756 10.0966 4.6756C10.759 4.6756 11.3221 4.91966 11.7858 5.40776C12.2495 5.89587 12.4813 6.48858 12.4813 7.18588C12.4813 7.88317 12.2495 8.47588 11.7858 8.96399C11.3221 9.4521 10.759 9.69615 10.0966 9.69615ZM10.0966 14.1589C7.94732 14.1589 5.98946 13.5274 4.22297 12.2645C2.45648 11.0016 1.17578 9.30876 0.380859 7.18588C1.17578 5.06299 2.45648 3.3701 4.22297 2.10722C5.98946 0.844333 7.94732 0.212891 10.0966 0.212891C12.2458 0.212891 14.2036 0.844333 15.9701 2.10722C17.7366 3.3701 19.0173 5.06299 19.8122 7.18588C19.0173 9.30876 17.7366 11.0016 15.9701 12.2645C14.2036 13.5274 12.2458 14.1589 10.0966 14.1589ZM10.0966 12.2994C11.76 12.2994 13.2873 11.8384 14.6784 10.9164C16.0695 9.99444 17.1331 8.75092 17.8691 7.18588C17.1331 5.62083 16.0695 4.37731 14.6784 3.45533C13.2873 2.53334 11.76 2.07235 10.0966 2.07235C8.43311 2.07235 6.90583 2.53334 5.51472 3.45533C4.12361 4.37731 3.06004 5.62083 2.324 7.18588C3.06004 8.75092 4.12361 9.99444 5.51472 10.9164C6.90583 11.8384 8.43311 12.2994 10.0966 12.2994Z" fill="#BBBBBB"/>
</svg>
